<?xml version="1.0" encoding="utf-8"?>
<!-- Generator: Adobe Illustrator 24.0.1, SVG Export Plug-In . SVG Version: 6.00 Build 0)  -->
<svg version="1.1" id="Calque_1" xmlns="http://www.w3.org/2000/svg" xmlns:xlink="http://www.w3.org/1999/xlink" x="0px" y="0px"
	 viewBox="0 0 785.39 785.39" style="enable-background:new 0 0 785.39 785.39;" xml:space="preserve">
<style type="text/css">
	.st0{fill:#008B4E;}
	.st1{fill:#002E0F;}
	.st2{fill:#B92400;}
	.st3{fill:#F89C00;}
	.st4{fill:#00A229;}
	.st5{fill:#FFEE45;}
	.st6{fill:#125C00;}
	.st7{fill:#A4D000;}
	.st8{fill:#D0C170;}
	.st9{fill:#A28400;}
	.st10{fill:#730013;}
	.st11{fill:#453200;}
	.st12{fill:none;stroke:#000025;stroke-width:5;stroke-miterlimit:10;}
	.st13{opacity:0.49;fill:none;stroke:#FFFCE7;stroke-width:10;stroke-linecap:round;stroke-miterlimit:10;}
	.st14{opacity:0.45;fill:none;stroke:#FFFCE7;stroke-width:10;stroke-linecap:round;stroke-miterlimit:10;}
</style>
<path class="st0" d="M494.67,43.03c-4.19-0.69-20.28-2.82-36.29,7.1c-18.82,11.66-23.13,31.04-23.82,34.4
	c0.15,6.37,1.44,19.44,10.58,32.8c5.52,8.06,12,13.47,16.76,16.8c0.67,0.43,4.57,3.07,5.29,8c0.7,4.79-2.12,8.19-2.65,8.8
	c-11.61,3.18-23.22,6.36-34.83,9.53c-13.91,3.99-24.36,14.48-27.35,27.42c-6.33,28.21-12.65,56.42-18.98,84.64
	c1.76,48.26,3.53,96.53,5.29,144.79c-5,6.67-10,13.33-15,20c0.42,5.34,1.23,11.26,2.65,17.6c2.46,11.04,6.09,20.44,9.7,28
	c1.47-4,2.94-8,4.41-12c-0.41-2.45-0.73-5.13-0.88-8c-0.3-5.76,0.16-10.89,0.88-15.2c0.04-0.17,0.7-3.03,3.53-4
	c2.45-0.84,5.46,0.11,7.06,2.4c-0.13,3.06-0.53,5.5-0.88,7.2c-0.35,1.67-0.69,2.85-0.88,4.8c-0.19,2.01-0.11,3.68,0,4.8
	c1.33-0.33,3.31-1,5.29-2.4c3.59-2.54,4.87-5.87,5.29-7.2c0.65-4.43,1.3-8,1.76-10.4c0.9-4.68,2.78-13.66,2.71-13.67
	c0,0-0.03,0.01-0.07,0.07c-0.88,1.6-7.06-14.4-7.06-14.4c3.82-43.2,7.64-86.4,11.47-129.59c6.76-25.33,13.53-50.66,20.29-76
	c-3.41,29.95-4.52,64.15-0.88,101.59c1.14,11.74,2.67,23.02,4.5,33.81c-4.47,24.57-9.39,59.8-10.21,102.74
	c-0.5,26.14,1.03,28.67,0,52.36c-2.25,51.9-10.76,66.99-12.64,106.52c-0.89,18.67-0.43,45.53,6.32,78.54
	c-5.01,5.17-12.33,14.12-17.15,27.08c-2.82,7.57-4.02,14.46-4.51,19.86c4.13,2.59,13.77,7.85,27.08,8.12
	c11.39,0.23,20.05-3.3,24.37-5.42c-0.41-5.49-1-11.22-1.81-17.15c-1.6-11.81-3.82-22.67-6.32-32.5
	c9.31-33.14,13.36-60.33,15.35-78.54c5.2-47.64-1.17-57.3,7.66-97.84c3.37-15.5,7.55-29,12.2-56.53
	c2.97-17.55,4.55-31.47,5.42-39.72c11.33-107.81,13.09-145.79,13.09-145.79C505.66,175.49,499.28,90.64,494.67,43.03z"/>
<path class="st1" d="M484.28,46.09c1.33-2.77,3.04-4.35,3.62-4.42c6.27-0.74,18.63,0.25,32.23,8.68
	c18.23,11.29,22.84,29.84,23.74,34.04c0.05,0.24,0.07,0.47,0.07,0.71c-0.19,6.5-1.6,19.34-10.58,32.45
	c-5.52,8.06-12,13.47-16.76,16.8c-0.67,0.43-4.57,3.07-5.29,8c-0.53,3.61,0.95,6.44,1.93,7.87c0.4,0.59,1,1.01,1.69,1.2
	c11.28,3.09,22.57,6.18,33.85,9.27c13.91,3.99,24.36,14.48,27.35,27.43c6.3,28.09,12.6,56.18,18.89,84.27
	c0.06,0.25,0.08,0.51,0.07,0.77c-1.75,47.79-3.49,95.57-5.24,143.36c-0.03,0.69,0.19,1.37,0.6,1.92
	c4.56,6.08,9.11,12.15,13.67,18.23c0.44,0.59,0.66,1.32,0.59,2.06c-0.45,5.04-1.24,10.56-2.55,16.46
	c-1.76,7.92-4.13,14.99-6.66,21.15c-1.04,2.53-4.66,2.44-5.61-0.13c-0.53-1.43-1.05-2.86-1.58-4.29c-0.18-0.48-0.23-1-0.14-1.5
	c0.35-2.24,0.62-4.66,0.76-7.23c0.3-5.76-0.16-10.89-0.88-15.2c-0.04-0.17-0.7-3.03-3.53-4c-1.97-0.67-4.3-0.19-5.97,1.21
	c-0.72,0.61-1.08,1.55-1.01,2.49c0.17,2.46,0.51,4.44,0.81,5.89c0.35,1.67,0.69,2.85,0.88,4.8c0,0.02,0,0.04,0.01,0.06
	c0.23,2.45-2.48,4.13-4.57,2.83c-0.24-0.15-0.49-0.31-0.73-0.49c-3.39-2.4-4.72-5.5-5.21-6.96c-0.05-0.16-0.09-0.33-0.12-0.5
	c-0.64-4.31-1.27-7.79-1.73-10.14c-0.9-4.68-2.78-13.66-2.71-13.67c0,0,0.03,0.01,0.07,0.07c0.77,1.4,5.62-10.74,6.8-13.74
	c0.17-0.43,0.24-0.9,0.2-1.36c-3.79-42.88-7.59-85.76-11.38-128.65c-0.02-0.17-0.05-0.34-0.09-0.51
	c-3.89-14.58-7.78-29.15-11.67-43.73c-0.93-3.48-6.08-2.7-5.92,0.91c0.98,21.33,0.62,44.32-1.75,68.68
	c-1.12,11.56-2.63,22.67-4.41,33.3c-0.06,0.34-0.06,0.68,0.01,1.02c4.45,24.55,9.31,59.59,10.12,102.25
	c0.5,26.14-1.03,28.67,0,52.37c2.25,51.91,10.76,67,12.64,106.54c0.88,18.38,0.45,44.71-6.01,77.01c-0.19,0.95,0.08,1.93,0.74,2.64
	c4.94,5.3,11.61,13.9,16.1,25.98c2.49,6.7,3.72,12.86,4.31,17.93c0.14,1.19-0.44,2.35-1.48,2.94c-4.76,2.75-13.65,6.88-25.4,7.12
	c-9.88,0.2-17.71-2.43-22.43-4.51c-1.17-0.52-1.88-1.72-1.78-2.99c0.4-4.85,0.94-9.88,1.64-15.07c1.56-11.5,3.7-22.11,6.13-31.74
	c0.13-0.5,0.12-1.03-0.02-1.53c-9.16-32.79-13.16-59.71-15.13-77.78c-5.2-47.65,1.17-57.31-7.66-97.85
	c-3.37-15.5-7.55-29-12.2-56.54c0,0-3.35-19.62-5.42-39.73c-4.5-43.73,14.89-135.23-1.35-200.23
	C458.65,91.69,470.02,75.84,484.28,46.09z"/>
<path class="st2" d="M287.45,343.29c-8.43,3.67-18.48,2.5-25.62-3.2c-6.05-4.83-14.57-8.49-26.24-5.16
	c-24.75,7.06-31.45,78.07-7.19,89.08s24.91,2.92,35.55,2.87c5.32-0.02,9.09,1.19,11.53,2.4c1.85,0.92,3.85,1.55,5.9,1.96
	c4.27,0.86,13.53,2.66,26.77-0.79c19.68-5.14,23.81-91.36,0.61-91.43C300.03,339.01,292.92,340.91,287.45,343.29z"/>
<ellipse transform="matrix(0.3668 -0.9303 0.9303 0.3668 -117.4522 446.1234)" class="st3" cx="268.98" cy="309.34" rx="33.85" ry="44.69"/>
<path class="st4" d="M331.5,297.5c0,0-15.81-22.01-28.47-23.65c-12.66-1.64-30.66,3.1-30.66,3.1s17.63,22.89,25.55,21.34
	C305.85,296.75,331.5,297.5,331.5,297.5z"/>
<path class="st5" d="M229.92,437.67c6.04,12.17-7.8,27.19,12,44.63s46.37,10.74,50.02,10.94c3.65,0.2,12.36,0.4,12.36,0.4
	s3.25-2.64,10.55-2.23c8.64,0.48-3.16-22.72-2.57-18.46s-3.14-27.79-11.01-37.53c-7.87-9.74-50.83-11.55-53.05-11.95
	C245.99,423.05,223.89,425.5,229.92,437.67z"/>
<path class="st4" d="M278.68,285.2c0,0-15.81-22.01-28.47-23.65c-12.66-1.64-30.66,3.1-30.66,3.1s17.63,22.89,25.55,21.34
	C253.03,284.45,278.68,285.2,278.68,285.2z"/>
<path class="st6" d="M279.1,640.05c0,0,38.17-51.32,21.26-82.81c-16.91-31.5-60.48-58.13-62.49-62.79s10.67,41.04,10.67,41.04
	l-26.73-8.4l16.77,36.63l-11.9,5.18c3.36,0.98,26.87,8.21,41.94,31.59C280.55,619.02,279.5,635.75,279.1,640.05z"/>
<path class="st7" d="M279.67,492.15c0,0-24.47-0.08-25.18,18.97c-1.31,35.2,1.66,31.38,1.26,29.51c0,0-21.4,20.02-13.85,48.47
	c7.55,28.45,41.54,22.13,41.54,22.13s37.77,3.16,36.51-20.02c-1.26-23.18-18.88-51.64-18.88-51.64s2.52-21.08-1.26-30.56
	C296.04,499.52,279.67,492.15,279.67,492.15z"/>
<path class="st4" d="M288.61,498.25c0,0-15.81-22.01-28.47-23.65c-12.66-1.64-30.66,3.1-30.66,3.1s17.63,22.89,25.55,21.34
	S288.61,498.25,288.61,498.25z"/>
<path class="st6" d="M301.85,626.49c0,0-25.65-56.24-53.62-57.68s-60.47,21.32-64.46,20.71s32.99,11.21,32.99,11.21l-14.18,17.83
	l31.65,4.06l0.15,12.28c1.73-2.28,14.09-18.03,35.61-19.03C287.04,615.08,298.86,624.07,301.85,626.49z"/>
<path class="st6" d="M280.98,644.33c0,0-6.5-61.47,16.85-76.93c23.34-15.46,62.91-12.38,66.04-14.93s-22.72,26.42-22.72,26.42
	l21.28,8.15l-25.19,19.58l6.11,10.65c-2.65-1.08-21.3-8.36-40.34,1.72C287.93,626.98,282.32,640.73,280.98,644.33z"/>
<path class="st8" d="M271.74,611.23c0,0-38.12,12.26-42.64,49.33c-4.52,37.06-4.42,64.18,8.71,74.65
	c13.12,10.47,52.9,9.47,52.9,9.47s37.98-27.13,30.13-76.46c-7.84-49.33-18.9-55.57-18.9-55.57S290.53,601.18,271.74,611.23z"/>
<g>
	<g>
		<path class="st9" d="M229.74,720.17c2.49,1.55,3.07,4.83,4.05,7.37c1.02,2.64,2.66,4.78,5.33,5.91c2.34,0.99,5.21,0.76,6.62-1.62
			c0.71-1.19,0.82-2.6,0.87-3.96c0.03-0.9-0.17-2.45,0.72-3.01c-0.68-0.18-1.37-0.36-2.05-0.54c3.29,5.72,7.83,10.58,13.26,14.32
			c0.5,0.34,1.42,0.25,1.82-0.23c2.7-3.28,5.4-6.56,8.1-9.84c-0.71,0-1.41,0-2.12,0c2.36,1.94,2.92,5.1,4.07,7.79
			c1.1,2.56,3.18,4.78,5.93,5.55c3.06,0.85,5.51-0.85,6.51-3.73c0.4-1.15,0.59-2.51,1.65-3.25c0.76-0.53,1.77-0.6,2.66-0.46
			c2.43,0.38,4.84,2.21,5.62,4.57c0.31,0.92,1.33,1.39,2.2,0.9c5.2-2.96,11.07-6.6,12-13.06c0.39-2.71-0.14-5.55-1.96-7.66
			c-1.06-1.23-2.15-1.34-3.59-0.65c-1.09,0.53-1.94,1.41-2.86,2.17c-0.61,0.51-1.39,1.15-2.21,0.75c-0.71-0.35-1.12-1.38-1.46-2.05
			c-0.93-1.85-1.87-3.97-3.99-4.69c-4.38-1.47-6.04,3.68-7.63,6.6c-0.73,1.34-1.98,3.43-3.83,2.7c-2.52-1-3.05-4.47-3.87-6.69
			c-0.91-2.46-2.32-4.91-5.01-5.67c-2.15-0.6-4.32,0.18-6.15,1.3c-2.62,1.61-7.11,6.65-10.1,3.2c-2.43-2.8-3.04-8.54-7.73-8.54
			c-2.84,0-4.45,2.33-6.32,4.09c-0.9,0.84-1.84,1.39-3.05,0.82c-1.53-0.72-2.82-2.41-3.79-3.74c-3.98-5.51-5.13-12.73-3-19.19
			c-0.91,0.12-1.83,0.24-2.74,0.36c2.11,4.12,4.8,8.58,9.79,9.35c2.12,0.33,4.19-0.12,5.87-1.49c1.43-1.16,2.42-2.73,3.66-4.07
			c0.89-0.96,2.1-1.92,3.15-0.56c1.12,1.47,1.27,3.51,2.37,5.02c2.04,2.82,5.52,3.73,8.85,3.28c3.99-0.53,7.78-2.79,9.93-6.23
			c-0.79,0.1-1.57,0.2-2.36,0.3c3.29,3.77,6.58,7.55,9.87,11.32c0.41,0.47,1.29,0.58,1.82,0.23c2.77-1.84,5.54-3.68,8.31-5.52
			c-0.73-0.3-1.47-0.6-2.2-0.9c1.44,3.61,4.47,6.29,8.22,7.35c1.83,0.52,3.76,0.61,5.63,0.25c0.74-0.14,2.17-0.94,2.89-0.66
			c0.72,0.29,1.18,1.65,1.75,2.2c2.73,2.65,6.69,1.28,9.3-0.78c3.35-2.64,4.97-6.77,5.87-10.83c1.19-5.34,0.95-10.93-0.74-16.13
			c-0.41-1.26-2.02-1.45-2.74-0.36c-2.23,3.37-4.47,6.74-6.7,10.12c0.86,0,1.73,0,2.59,0c-2.55-3.99-5.63-7.6-9.21-10.71
			c-0.68-0.6-1.89-0.61-2.36,0.3c-1.02,2.01-2.04,4.01-3.05,6.02c-0.27,0.53-0.58,1.62-1.11,1.94c-0.66,0.41-1.39-0.73-1.8-1.18
			c-2.97-3.3-5.93-6.61-8.89-9.92c-0.46-0.51-1.25-0.53-1.82-0.23c-1.74,0.89-2.47,2.62-3.17,4.34c-0.74,1.81-1.72,3.33-3.9,2.53
			c-2.11-0.78-3.37-2.69-4.72-4.36c-1.4-1.73-2.99-3.23-5.17-3.86c-0.79-0.23-1.62,0.27-1.85,1.05c-0.93,3.2-3.98,5.58-7.31,5.77
			c-3.49,0.2-6.84-1.81-8.54-4.81c-0.76-1.34-1.35-2.8-2.59-3.79c-1.53-1.22-3.43-1.17-5.17-0.44c-2.04,0.85-3.96,2.11-5.88,3.18
			c-2.14,1.2-4.29,2.4-6.43,3.6c0.68,0.18,1.37,0.36,2.05,0.54c-4.64-6.58-4.98-15.53-0.77-22.42c-0.86,0-1.73,0-2.59,0
			c1.92,2.57,3.85,5.14,5.77,7.71c0.6,0.81,2.06,1.13,2.59,0c1.66-3.53,4.51-6.7,8.4-7.69c3.29-0.84,7.35,0.38,9.16,3.39
			c0.9,1.5,0.87,3.33,1.66,4.88c0.78,1.55,2.47,2.52,4.21,2.19c3.46-0.67,4.45-5.44,8.1-5.54c5.04-0.14,7.2,5.33,8.63,9.24
			c0.41,1.12,2.11,1.59,2.74,0.36c2.18-4.22,7.73-4.6,11.94-4.62c4.4-0.02,9.4,0.15,13.34,2.37c2,1.13,3.1,2.69,4.01,4.76
			c0.81,1.85,2.03,4.18,4.36,4.18c2.69,0,3.9-2.98,4.76-5.07c1.03-2.51,1.63-5.17,1.84-7.87c0.47-6.03-1.2-12.24-4.74-17.15
			c-0.6-0.83-1.57-0.97-2.36-0.3c-2.56,2.14-5.12,4.29-7.68,6.43c0.79,0.1,1.57,0.2,2.36,0.3c-2.44-4.14-4.89-8.28-7.33-12.42
			c-0.46-0.77-1.72-1.06-2.36-0.3c-3.42,4.09-11.06,11.53-16.37,6.12c-2.14-2.18-3.45-5.16-6.49-6.3
			c-3.85-1.43-7.58,0.87-10.92,2.54c-1.7,0.85-4.14,1.95-5.99,0.95c-0.91-0.49-2.29-2.09-1.4-3.16c0.87-1.03,0.08-3.07-1.46-2.51
			c-2.9,1.05-5.8,2.1-8.7,3.16c-2.73,0.99-5.5,2.27-8.33,2.92c-0.99,0.23-2.26,0.35-2.99-0.52c-0.57-0.68-0.52-1.73-0.37-2.54
			c0.42-2.31,1.84-4.31,3.13-6.21c2.97-4.37,6.61-8.28,10.69-11.63c0.85-0.7,2.95-3.03,3.64-1.34c0.57,1.42,0.56,3.02,1.12,4.45
			c0.35,0.89,0.87,1.73,1.68,2.27c1.3,0.86,2.12,0.28,3.31-0.48c2.99-1.92,5.98-3.83,8.98-5.75c-0.68-0.18-1.37-0.36-2.05-0.54
			c2.23,3.72,4.46,7.44,6.7,11.17c0.38,0.63,1.4,1.04,2.05,0.54c1.69-1.3,3.38-2.6,5.06-3.89c0.84-0.65,1.69-1.3,2.53-1.95
			c0.46-0.35,1.35-1.25,2.01-1c0.56,0.21,0.86,1.17,1.09,1.64c0.49,1.02,0.95,2.06,1.42,3.09c0.88,1.91,1.76,3.83,2.64,5.74
			c0.46,1,2.11,0.96,2.59,0c1.83-3.67,3.65-7.34,5.48-11.01c-0.79,0.1-1.57,0.2-2.36,0.3c4.8,5.01,9.92,9.7,15.34,14.03
			c1.08,0.86,2.39,0.27,2.56-1.06c0.55-4.26,0.25-8.61-0.87-12.76c-0.56-2.06-1.33-4.07-2.27-5.99c-0.8-1.62-1.71-3.34-3.22-4.41
			c-1.64-1.17-3.49-0.96-5.29-0.33c-0.75,0.26-1.66,0.71-2.48,0.55c-0.83-0.17-1.42-0.92-1.93-1.54c-1.08-1.32-2.09-2.63-3.64-3.44
			c-1.51-0.79-3.25-1.1-4.95-0.99c-4.24,0.27-8.23,2.42-11.67,4.78c0.68,0.18,1.37,0.36,2.05,0.54c-1.19-1.63-1.42-3.44-0.67-5.31
			c0.4-1-0.59-1.8-1.45-1.9c-4.15-0.49-8.23,0.22-12.04,1.9c0.61,0.79,1.21,1.57,1.82,2.36c4.22-3.95,9.47-6.51,15.15-7.52
			c1.9-0.34,1.09-3.23-0.8-2.89c-6.18,1.09-11.9,4-16.47,8.29c-1.33,1.25,0.36,3,1.82,2.36c3.32-1.47,6.93-1.92,10.52-1.49
			c-0.48-0.63-0.96-1.27-1.45-1.9c-1.01,2.51-0.63,5.44,0.97,7.62c0.45,0.62,1.33,1.03,2.05,0.54c2.73-1.87,5.71-3.58,8.99-4.21
			c1.41-0.27,2.96-0.29,4.31,0.28c1.47,0.63,2.35,1.92,3.33,3.11c0.95,1.15,2.11,2.15,3.63,2.39c1.82,0.28,3.24-0.69,4.96-1
			c1.75-0.31,2.66,1.49,3.35,2.79c0.89,1.66,1.61,3.4,2.16,5.2c1.3,4.22,1.63,8.62,1.06,13c0.85-0.35,1.71-0.71,2.56-1.06
			c-5.42-4.33-10.55-9.01-15.34-14.03c-0.63-0.66-1.93-0.56-2.36,0.3c-1.83,3.67-3.65,7.34-5.48,11.01c0.86,0,1.73,0,2.59,0
			c-1.08-2.35-2.17-4.71-3.25-7.06c-0.81-1.76-1.58-4.12-3.64-4.78c-2.26-0.71-4.11,1.08-5.74,2.34c-2.08,1.6-4.15,3.19-6.23,4.79
			c0.68,0.18,1.37,0.36,2.05,0.54c-2.23-3.72-4.46-7.44-6.7-11.17c-0.4-0.67-1.36-0.98-2.05-0.54c-3.4,2.18-6.8,4.35-10.2,6.53
			c0.39-0.05,0.77-0.1,1.16-0.15c-0.95-0.4-1.06-2.64-1.23-3.47c-0.3-1.46-0.72-3.11-2.07-3.96c-2.09-1.31-4.18,0.16-5.83,1.45
			c-2.11,1.64-4.11,3.43-5.97,5.35c-1.8,1.86-3.46,3.85-5.01,5.92c-1.48,1.99-3,4.09-3.99,6.38c-0.79,1.84-1.34,4.02-0.74,5.99
			c0.68,2.21,2.76,3.5,5.02,3.47c3.02-0.04,6.13-1.69,8.92-2.7c3.36-1.22,6.72-2.44,10.08-3.66c-0.49-0.84-0.97-1.67-1.46-2.51
			c-2.41,2.88-0.47,6.91,2.73,8.21c4.61,1.86,8.74-2.12,12.85-3.43c2.01-0.65,3.95-0.56,5.52,0.96c1.28,1.24,2.18,2.8,3.37,4.12
			c2.62,2.9,6.42,3.77,10.09,2.53c4.35-1.47,7.96-4.82,10.86-8.28c-0.79-0.1-1.57-0.2-2.36-0.3c2.44,4.14,4.89,8.28,7.33,12.42
			c0.52,0.89,1.62,0.92,2.36,0.3c2.56-2.14,5.12-4.29,7.68-6.43c-0.79-0.1-1.57-0.2-2.36-0.3c3.04,4.22,4.55,9.29,4.4,14.48
			c-0.08,2.57-0.59,5.11-1.51,7.51c-0.36,0.95-0.9,2.75-1.76,3.37c-0.73,0.52-1.16-0.47-1.48-1.05c-1.05-1.9-1.63-3.83-3.23-5.38
			c-1.55-1.51-3.52-2.51-5.56-3.19c-4.26-1.42-9.09-1.63-13.55-1.43c-4.83,0.22-10.4,1.37-12.82,6.07c0.91,0.12,1.83,0.24,2.74,0.36
			c-1.54-4.21-3.41-8.83-7.84-10.69c-1.91-0.8-4.12-1.04-6.09-0.3c-1.97,0.74-3.18,2.41-4.59,3.87c-0.41,0.43-1.06,1.24-1.71,1.29
			c-0.86,0.06-1.11-0.95-1.29-1.6c-0.53-1.95-0.95-3.68-2.28-5.28c-2.6-3.13-7.01-4.43-10.94-3.71c-4.91,0.9-8.85,4.84-10.91,9.23
			c0.86,0,1.73,0,2.59,0c-1.92-2.57-3.85-5.14-5.77-7.71c-0.66-0.89-1.96-1.04-2.59,0c-4.72,7.73-4.45,18.03,0.77,25.45
			c0.47,0.67,1.29,0.96,2.05,0.54c2.14-1.2,4.29-2.4,6.43-3.6c1.14-0.64,2.29-1.28,3.43-1.92c0.87-0.49,1.91-1.24,2.93-1.37
			c1.83-0.24,2.45,1.99,3.18,3.26c0.93,1.63,2.22,3,3.75,4.08c6.2,4.38,15.42,1.74,17.59-5.77c-0.62,0.35-1.23,0.7-1.85,1.05
			c2.29,0.66,3.66,2.89,5.09,4.65c1.47,1.81,3.45,3.43,5.81,3.82c2.3,0.39,4.34-0.62,5.54-2.59c0.91-1.5,1.15-3.96,2.84-4.83
			c-0.61-0.08-1.21-0.16-1.82-0.23c1.87,2.08,3.73,4.16,5.6,6.24c0.93,1.04,1.87,2.08,2.8,3.12c0.77,0.86,1.53,1.83,2.57,2.38
			c2,1.04,3.85-0.13,4.87-1.89c1.36-2.36,2.49-4.89,3.73-7.32c-0.79,0.1-1.57,0.2-2.36,0.3c3.39,2.95,6.32,6.32,8.74,10.1
			c0.63,0.98,1.96,0.95,2.59,0c2.23-3.37,4.47-6.74,6.7-10.12c-0.91-0.12-1.83-0.24-2.74-0.36c1.27,3.93,1.7,8.08,1.16,12.18
			c-0.46,3.56-1.51,7.8-4.02,10.49c-1.52,1.63-5.03,4.23-6.91,1.73c-1.06-1.41-1.85-2.75-3.87-2.67c-1.76,0.07-3.31,0.95-5.11,0.89
			c-3.5-0.11-7.06-2.31-8.38-5.62c-0.33-0.84-1.32-1.48-2.2-0.9c-2.77,1.84-5.54,3.68-8.31,5.52c0.61,0.08,1.21,0.16,1.82,0.23
			c-3.29-3.77-6.58-7.55-9.87-11.32c-0.66-0.75-1.87-0.47-2.36,0.3c-2.65,4.24-11.57,7.72-14.32,1.72
			c-0.73-1.59-1.08-3.39-2.36-4.68c-1.14-1.14-2.87-1.62-4.41-1.12c-3.23,1.06-4.1,5.05-7.07,6.39c-1.95,0.88-4.37,0.05-5.92-1.25
			c-2.01-1.68-3.2-4.11-4.38-6.39c-0.62-1.21-2.36-0.8-2.74,0.36c-1.65,5.01-1.54,10.54,0.22,15.51c0.88,2.49,2.14,4.82,3.77,6.9
			c1.56,1.99,3.68,4.41,6.4,4.58c2.19,0.14,3.85-1.28,5.27-2.77c0.96-1.01,2.44-2.99,4.08-2.26c1.29,0.57,1.96,2.49,2.54,3.65
			c0.81,1.64,1.66,3.36,3.09,4.56c3.29,2.76,7.06,0.86,10.04-1.31c2.74-1.99,6.75-5.33,9.1-1c1.14,2.1,1.42,4.54,2.62,6.62
			c1.17,2.03,3.13,3.92,5.62,3.88c3.96-0.06,5.51-4.27,7.03-7.21c0.35-0.68,0.71-1.42,1.25-1.97c0.39-0.4,0.64-0.57,1.12-0.49
			c1.7,0.26,2.38,3.07,3.12,4.33c1.07,1.83,2.87,3.2,5.09,2.65c2.28-0.56,3.48-3.18,5.77-3.49c-0.49-0.13-0.97-0.26-1.46-0.39
			c2.56,2.34,2.32,6.3,0.67,9.11c-2.08,3.55-5.95,5.65-9.4,7.62c0.73,0.3,1.47,0.6,2.2,0.9c-1.5-4.52-7.33-8.42-12.05-6.24
			c-1.04,0.48-1.9,1.28-2.49,2.26c-0.78,1.3-0.79,3.26-1.86,4.36c-1.94,1.98-5.11-1.31-5.92-2.94c-1.56-3.17-2.03-6.84-4.91-9.21
			c-0.58-0.48-1.57-0.67-2.12,0c-2.7,3.28-5.4,6.56-8.1,9.84c0.61-0.08,1.21-0.16,1.82-0.23c-5.01-3.45-9.15-7.98-12.18-13.25
			c-0.39-0.68-1.37-0.97-2.05-0.54c-2.37,1.51-2.01,4.09-2.25,6.53c-0.08,0.86-0.3,1.85-1.21,2.16c-0.93,0.31-2.04-0.19-2.83-0.66
			c-2.3-1.38-2.92-3.79-3.77-6.17c-0.93-2.59-2.09-5.05-4.49-6.55C229.62,716.55,228.11,719.15,229.74,720.17L229.74,720.17z"/>
	</g>
</g>
<circle class="st10" cx="268.98" cy="261.49" r="17.6"/>
<g>
	<g>
		<path class="st11" d="M271.26,244.18c2.82-16.25,5.74-32.94,14.14-47.39c-0.91-0.39-1.83-0.77-2.74-1.16
			c-5.31,15.38-10.62,30.82-13.6,46.85c-0.35,1.89,2.54,2.7,2.89,0.8c2.98-16.03,8.29-31.48,13.6-46.85c0.56-1.63-1.9-2.6-2.74-1.16
			c-8.53,14.69-11.58,31.59-14.44,48.11C268.04,245.27,270.93,246.08,271.26,244.18L271.26,244.18z"/>
	</g>
</g>
<path class="st1" d="M647.81,177.04"/>
<path class="st12" d="M988.2,227.2"/>
<path class="st13" d="M558,346.43"/>
<path class="st13" d="M378.49,351.96"/>
<path class="st13" d="M434.85,346.75"/>
<path class="st14" d="M569.21,657.22c33.29,2.54,55,6.7,55,11.42c0,7.73-58.4,13.99-130.45,13.99s-130.45-6.26-130.45-13.99
	c0-4.22,17.38-7.99,44.86-10.56"/>
<path class="st14" d="M569.21,657.22"/>
<path class="st14" d="M469.79,654.88c7.77-0.15,15.79-0.24,23.98-0.24c6.13,0,12.16,0.05,18.07,0.13"/>
<path class="st14" d="M469.79,654.88"/>
<path class="st14" d="M429.18,336.39"/>
<path class="st14" d="M603.45,345c5.91,1.87,15.35,4.64,15.35,6.77c0,9.22-61.03,16.7-136.32,16.7s-136.32-7.48-136.32-16.7
	c0-3.95,11.2-7.58,29.92-10.44"/>
<path class="st14" d="M609.65,345.74"/>
<path class="st14" d="M548.38,336.96c3.36,0.06,6.67,0.13,9.93,0.2"/>
<path class="st14" d="M421.96,337.07c2.96-0.03,5.97-0.06,9.03-0.08"/>
<path class="st14" d="M530.81,138.11c38.14,2.75,64.51,8.66,64.51,15.5c0,9.47-50.52,17.15-112.84,17.15s-112.84-7.68-112.84-17.15
	c0-7.47,31.41-13.82,75.25-16.18"/>
</svg>
