<?xml version="1.0" encoding="utf-8"?>
<!-- Generator: Adobe Illustrator 24.0.1, SVG Export Plug-In . SVG Version: 6.00 Build 0)  -->
<svg version="1.1" xmlns="http://www.w3.org/2000/svg" xmlns:xlink="http://www.w3.org/1999/xlink" x="0px" y="0px"
	 viewBox="0 0 785.39 785.39" style="enable-background:new 0 0 785.39 785.39;" xml:space="preserve">
<style type="text/css">
	.st0{fill:#EBFFE7;}
	.st1{fill:#3A4A00;}
	.st2{fill:#FFFFFF;stroke:#000000;stroke-width:3;stroke-miterlimit:10;}
	.st3{fill:#FCD99C;}
	.st4{fill:none;}
	.st5{fill:none;stroke:#000000;stroke-miterlimit:10;}
	.st6{font-family:'Nunito-Regular';}
	.st7{font-size:26px;}
	.st8{font-size:26.4011px;}
	.st9{fill:#008B2F;stroke:#1B8B00;stroke-miterlimit:10;}
	.st10{fill:#FFFFFF;}
	.st11{font-size:20.3085px;}
	.st12{fill:#663300;stroke:#000000;stroke-width:3;stroke-miterlimit:10;}
	.st13{fill:none;stroke:#000000;stroke-width:5;stroke-linecap:round;stroke-miterlimit:10;}
	.st14{fill:#FFFFFF;stroke:#000000;stroke-miterlimit:10;}
	.st15{fill:#A2DEFF;}
	.st16{fill:#663300;}
	.st17{fill:#FFFFFF;stroke:#A2002D;stroke-width:2;stroke-miterlimit:10;}
	.st18{fill:#663300;stroke:#000000;stroke-miterlimit:10;}
</style>
<g id="Calque_1">
	<g>
		<path class="st0" d="M507.58,43.69h168.97c25.85,0,45.57,22.18,44.06,49.55l-17.73,319.9c-1.52,27.37-23.7,49.55-49.55,49.55
			H484.36c-25.85,0-45.57-22.18-44.06-49.55l17.73-319.9C459.55,65.88,481.73,43.69,507.58,43.69z"/>
		<path class="st1" d="M507.58,43.39l160.2-0.07l5.01,0l2.5,0l1.25,0l1.26,0.07l2.52,0.13c0.42,0.03,0.84,0.02,1.26,0.09l1.25,0.2
			c1.66,0.28,3.34,0.48,4.94,1c6.51,1.71,12.59,4.99,17.64,9.45c5.08,4.43,9.02,10.1,11.66,16.28c2.65,6.19,3.96,12.92,3.98,19.64
			c0.05,3.38-0.25,6.69-0.4,10.03l-0.55,10L719,130.2l-2.2,39.99l-8.79,159.96l-4.4,79.98c-0.09,1.67-0.16,3.33-0.37,5.01
			c-0.17,1.68-0.3,3.36-0.69,5.01c-0.33,1.65-0.61,3.32-1.16,4.92l-0.72,2.42c-0.21,0.82-0.6,1.58-0.89,2.37
			c-2.44,6.28-6.06,12.11-10.62,17.08c-4.56,4.97-10.07,9.08-16.19,11.93c-6.12,2.86-12.86,4.42-19.63,4.43l-160.2-0.07l-5.01,0
			l-2.5,0l-1.25,0l-1.26-0.07l-2.53-0.14c-0.42-0.03-0.85-0.02-1.26-0.09l-1.25-0.2c-1.67-0.28-3.35-0.48-4.96-1.01
			c-6.53-1.72-12.63-5.02-17.68-9.49c-5.09-4.45-9.03-10.13-11.67-16.33c-2.65-6.2-3.96-12.95-3.96-19.68
			c-0.05-3.38,0.26-6.69,0.41-10.03l0.56-10l1.12-19.99l2.24-39.99l8.94-159.95l4.47-79.97c0.09-1.67,0.17-3.33,0.37-5
			c0.17-1.67,0.3-3.35,0.69-4.98c0.33-1.65,0.61-3.3,1.16-4.9l0.72-2.41c0.21-0.81,0.6-1.57,0.89-2.35
			c2.44-6.25,6.05-12.05,10.59-16.99c4.54-4.94,10.03-9.02,16.12-11.85C494.16,44.94,500.86,43.4,507.58,43.39z M507.58,44
			c-6.64,0.02-13.24,1.57-19.24,4.38c-6,2.81-11.4,6.86-15.87,11.74c-4.47,4.89-8.01,10.61-10.4,16.78
			c-0.28,0.78-0.66,1.52-0.87,2.32l-0.7,2.38c-0.53,1.57-0.8,3.21-1.13,4.83c-0.38,1.61-0.5,3.27-0.67,4.91
			c-0.2,1.64-0.27,3.31-0.36,4.97l-3.91,80.01l-7.02,160.06l-1.74,40.01l-0.87,20.01l-0.44,10l-0.22,5
			c-0.02,0.82-0.1,1.71-0.08,2.46l0.01,2.32c0.09,6.19,1.37,12.31,3.84,17.9c2.46,5.58,6.08,10.64,10.68,14.54
			c4.57,3.93,10,6.76,15.78,8.2c1.42,0.45,2.92,0.6,4.39,0.83l1.11,0.17c0.37,0.06,0.75,0.04,1.12,0.07l2.24,0.1l1.12,0.06
			l1.25-0.01l2.5-0.02l5.01-0.04c26.7-0.16,53.4-0.44,80.1-0.51l80.1-0.18c5.88,0.01,11.75-1.33,17.13-3.82
			c5.39-2.49,10.29-6.11,14.36-10.52c4.08-4.41,7.33-9.6,9.53-15.21c0.26-0.71,0.62-1.38,0.8-2.11l0.65-2.16
			c0.5-1.43,0.75-2.91,1.05-4.39c0.37-1.47,0.47-2.97,0.63-4.47c0.07-0.77,0.19-1.44,0.22-2.3l0.14-2.5l4.96-79.95l10.7-159.85
			l2.69-39.96l1.34-19.98l0.67-9.99c0.19-3.31,0.54-6.72,0.52-9.89c0.07-6.43-1.11-12.88-3.56-18.84
			c-2.45-5.95-6.15-11.43-10.97-15.74c-4.79-4.33-10.58-7.56-16.84-9.29c-1.54-0.53-3.16-0.74-4.76-1.03
			c-1.59-0.37-3.23-0.32-4.85-0.46l-1.22-0.07l-1.25-0.01l-2.5-0.02l-5.01-0.04l-80.1-0.52L507.58,44z"/>
	</g>
	<path class="st2" d="M547.45,167.7h-60.78c-6.12,0-10.05-5.89-8.78-13.16l12.65-72.18c1.27-7.27,7.27-13.16,13.39-13.16h60.78
		c6.12,0,10.05,5.89,8.78,13.16l-12.65,72.18C559.57,161.8,553.57,167.7,547.45,167.7z"/>
	<path class="st3" d="M504.29,168.21c0,0,10.91-8.01,12.65-22.5c0.6-5.01-2-6-2-6s-15-3-12-19s12.17-22.59,15-24c4-2,6-3,11-3
		c8.25,1.49,9.67,1.18,14,9c5.25,9.49-1,26-1,26s-4,11-12,12c-5.6,0.7-6.18,4.09-6.02,6.06c0.1,1.24,0.18,2.47,0.16,3.71
		c-0.08,4.83,0.6,15.79,8.13,17.73"/>
	<polygon class="st4" points="685.73,131.46 583.22,131.46 591.97,81.83 694.48,81.83 	"/>
	<text transform="matrix(0.9848 0 -0.1736 0.9848 588.7861 99.8146)" class="st5 st6 st7">PROFIL</text>
	<polygon class="st4" points="654.99,234.7 452.62,234.7 492.32,203.39 694.7,203.39 	"/>
	<text transform="matrix(0.9848 0 -0.1736 0.9848 487.1046 221.6514)" class="st6 st8">Votre nutrition </text>
	<path class="st2" d="M516.6,325.2h-31.03c-7.45,0-12.42-6.04-11.11-13.48l5.47-31.03c1.31-7.45,8.41-13.48,15.86-13.48h31.03
		c7.45,0,12.42,6.04,11.11,13.48l-5.47,31.03C531.15,319.16,524.04,325.2,516.6,325.2z"/>
	<path class="st2" d="M584.83,325.2h-31.03c-7.45,0-12.42-6.04-11.11-13.48l5.47-31.03c1.31-7.45,8.41-13.48,15.86-13.48h31.03
		c7.45,0,12.42,6.04,11.11,13.48l-5.47,31.03C599.37,319.16,592.27,325.2,584.83,325.2z"/>
	<path class="st2" d="M652.83,325.2h-31.03c-7.45,0-12.42-6.04-11.11-13.48l5.47-31.03c1.31-7.45,8.41-13.48,15.86-13.48h31.03
		c7.45,0,12.42,6.04,11.11,13.48l-5.47,31.03C667.37,319.16,660.27,325.2,652.83,325.2z"/>
	<path class="st9" d="M602.73,417.2h-89c-17.12,0-28.55-9.74-25.53-21.75v0c3.02-12.01,19.35-21.75,36.47-21.75h89
		c17.12,0,28.55,9.74,25.53,21.75v0C636.18,407.46,619.85,417.2,602.73,417.2z"/>
	<text transform="matrix(0.9848 0 -0.1736 0.9848 514.9123 401.3747)" class="st10 st6 st11">Continuer</text>
</g>
<g id="Calque_6">
	<path class="st12" d="M206.76,92.02c0,0-9.43-41.08-37.4-24.3s-34.68,93.98-58.18,104.04c-23.49,10.07-46.99-7.83-46.99-7.83
		s5.59,34.68,26.85,44.75s67.15-6.71,79.44-36.36C182.78,142.68,206.76,92.02,206.76,92.02z"/>
	<path class="st12" d="M318.15,133.73c-13.8-25.59-29.09-53.7-82.79-49.23c-30.1,2.51-58.81,18.64-64.89,63.77
		c-7.83,58.18,40.09,85.81,76.08,82.79C299.08,226.65,342.07,178.08,318.15,133.73z"/>
	<path class="st13" d="M381.89,300.06c12.11,15.76,13.73,36.28,5.96,53.16"/>
	<path class="st13" d="M373,310.39c8.1,10.55,9.19,24.28,3.99,35.58"/>
	<path class="st13" d="M364.08,320.44c3.89,5.07,4.41,11.67,1.92,17.09"/>
</g>
<g id="Calque_4">
	<path class="st14" d="M283.47,651.71c0,0,0,25.73-4.48,32.44c-4.48,6.71-4.48,19.02-4.48,19.02c11.94,2.4,26.69,4.38,43.63,4.48
		c15.44,0.09,29.04-1.41,40.28-3.36c0.37-2.98,0.75-5.97,1.12-8.95c0,0,4.96-11.9-4.74-17.96c-1.11-0.7-2.11-1.56-3.13-2.39
		c-9.25-7.49-46.04,15.06-50.3-24.4C305.85,632.69,283.47,651.71,283.47,651.71z"/>
	<path class="st14" d="M209.63,648.36l-5.59,26.85c0.05-0.21-2.41,6.19-4.48,15.66c-1.02,4.68-2.24,19.02-2.24,19.02
		s13.43,12.31,31.33,12.31s26.85-11.19,26.85-11.19s-4.48-14.54-6.71-20.14c-1.18-2.96-5.59-11.19-5.59-11.19v-31.33H209.63z"/>
	<path class="st3" d="M305.85,283.64c0,0,16.32,0.35,26.85,10.07c14.54,13.43,1.12,71.38,1.12,82.79c0,13.43,6.71,96.21,6.71,96.21
		h-15.66l-16.78-95.09L305.85,283.64z"/>
	<path class="st15" d="M220.82,420.13c0,0-12.31,15.66-22.38,77.19c-10.13,61.92,0,177.88,0,177.88h49.23l15.66-142.08l12.31,134.25
		l48.11-6.71c2.97-45.85,4.09-95.63,2.24-148.79c-1.06-30.38-7.47-62.86-10.07-90.62C282.35,420.13,254.38,421.25,220.82,420.13z"/>
	<path class="st3" d="M242.08,283.64c0,0-29.73,5.02-37.41,18.71c-16.9,30.13-2.11,69.19,4.96,101
		c2.24,10.07,97.89-26.29,97.89-26.29l-6.71-17.9l-68.8,17.34c0,0,12.41-45.62,16.78-64.89
		C251.19,301.04,242.08,283.64,242.08,283.64z"/>
	<path class="st3" d="M259.45,233.57c0,0,2.71,28.64-6.45,45.41c-7.81,14.3,37.51,22.28,45.1,16.58s-16.48-35.11-6.53-57.43
		c5.09-11.42-15.84-7.94-23.85-5.31c-2.66,0.87-5.48,1.14-8.25,0.75L259.45,233.57z"/>
	<path class="st3" d="M226.41,172.89c-16.62-1.89-38.96-15.19-44.75-7.83c-5.24,6.66-1.78,21.8,6.71,27.97
		c6.52,4.73,11.77,1.11,19.02,5.59c8.96,5.54,8.86,15.99,12.31,23.49c10.53,22.95,63.58,39.12,96.21,14.54
		c23.19-17.47,24.54-46.83,24.61-49.23c0.23-7.78,0.95-31.44-13.43-41.39C304.2,130.18,283.16,179.33,226.41,172.89z"/>
	<path class="st12" d="M355.25,173.23c0,0,4.19-84.95-69.39-81.01c-65.04,3.48-65.73,80.67-65.73,80.67L355.25,173.23z"/>
	<path class="st16" d="M252.17,282.29c-3.36,0.55-19.04,4.72-22.4,5.27c6.71,3.36,13.43,61.53,2.24,89.5
		c38.04-4.48,39.16-10.07,70.48-17.9l5.03,17.9l-85.58,29.09l-1.12,15.66l95.09,1.12c0,0-3.36-53.7,2.24-60.41
		c5.59-6.71,16.79-9.46,19.02-24.88c3.36-23.22-19.02-34.41-19.02-34.41l-12.31-19.29l-8.27-1.64c0.36,6.35-1.58,9.24-2.91,10.59
		C288.28,299.34,271.01,295.82,252.17,282.29z"/>
	<path class="st15" d="M275.64,455.93c0,0-12.31,58.4-12.31,78.31"/>
	<path class="st14" d="M198.45,699.82c-2.57,3.95,13.64,8.7,27.97,8.95c16.04,0.28,27.43-3.31,25.73-7.83
		C242.08,674.09,212.99,677.44,198.45,699.82z"/>
	<path class="st14" d="M275.64,695.35c12.48,1.33,26.35,2.21,41.39,2.23c7.57,0.01,35.46-1.48,42.51-2.24"/>
	<path class="st14" d="M343.88,672.97"/>
	<path class="st14" d="M343.88,672.97c-2.01,1.49-5.3,4.33-7.83,8.95c-3.36,6.13-3.47,11.93-3.36,14.54"/>
	<path class="st3" d="M340.53,472.71c0,0,14.54,19.02,10.07,35.8c-4.48,16.78-4.48,19.02-4.48,19.02l-6.71-4.48l-5.59-31.33
		l-5.59,17.9l-2.38-1.19l-2.3-26.83l1.32-8.89H340.53z"/>
	<polygon class="st17" points="306.96,351.89 334.93,326.16 351.72,335.11 320.39,365.31 	"/>
	<path class="st3" d="M307.52,377.06c0,0,8.39-5.03,11.75-6.15c3.36-1.12,8.95-3.36,11.19-5.59c2.24-2.24,4.14-14.59,4.14-14.59
		l-4.14-1.07l-6.15,10.87l-3.92,2.56l-14.54-11.19l5.25-4.67l9.12-8.1l-5.42,0.46l-2.24,3.36l-4.92,2.21l-2.91,3.38
		c0,0,1.12,4.48,0,6.71c-1.12,2.24-3.92,3.92-3.92,3.92L307.52,377.06z"/>
</g>
<g id="Calque_5">
</g>
<g id="Calque_3">
	<path class="st18" d="M507.2,97.19l-5,13l45,5l-1.37-10.88C543.2,87.19,517.2,82.19,507.2,97.19z"/>
	<path class="st18" d="M538.28,92.44c0,0-0.08-6.25,6.92-5.25s6,16,10,20s8-1,8-1s-1,16-9,10s-10-13-10-13L538.28,92.44z"/>
</g>
</svg>
